<svg width="1600" height="720" viewBox="0 0 1600 720" fill="none" xmlns="http://www.w3.org/2000/svg">
  <defs>
    <linearGradient id="bg" x1="120" y1="70" x2="1480" y2="650" gradientUnits="userSpaceOnUse">
      <stop stop-color="#0F172A"/>
      <stop offset="0.48" stop-color="#0B2458"/>
      <stop offset="1" stop-color="#2563EB"/>
    </linearGradient>
    <linearGradient id="panel" x1="930" y1="140" x2="1390" y2="560" gradientUnits="userSpaceOnUse">
      <stop stop-color="#F8FAFC" stop-opacity="0.18"/>
      <stop offset="1" stop-color="#BFDBFE" stop-opacity="0.08"/>
    </linearGradient>
    <linearGradient id="accent" x1="0" y1="0" x2="1" y2="1">
      <stop stop-color="#60A5FA"/>
      <stop offset="1" stop-color="#2563EB"/>
    </linearGradient>
    <filter id="shadow" x="0" y="0" width="1600" height="720" filterUnits="userSpaceOnUse" color-interpolation-filters="sRGB">
      <feDropShadow dx="0" dy="18" stdDeviation="24" flood-color="#020617" flood-opacity="0.28"/>
    </filter>
  </defs>

  <rect width="1600" height="720" rx="36" fill="url(#bg)"/>
  <circle cx="1370" cy="120" r="220" fill="#60A5FA" fill-opacity="0.08"/>
  <circle cx="1280" cy="620" r="200" fill="#1D4ED8" fill-opacity="0.18"/>
  <circle cx="180" cy="620" r="260" fill="#0EA5E9" fill-opacity="0.10"/>

  <g filter="url(#shadow)">
    <rect x="72" y="92" width="1456" height="536" rx="28" fill="white" fill-opacity="0.05" stroke="white" stroke-opacity="0.12"/>
  </g>

  <rect x="118" y="134" width="128" height="128" rx="28" fill="#EFF6FF"/>
  <circle cx="182" cy="198" r="42" fill="#1E3A8A"/>
  <circle cx="182" cy="198" r="29" fill="#3B82F6"/>
  <rect x="148" y="233" width="72" height="18" rx="9" transform="rotate(-38 148 233)" fill="url(#accent)"/>
  <rect x="157" y="156" width="50" height="50" rx="14" fill="#DBEAFE"/>
  <path d="M171 171H192C206 171 214 178 214 191C214 203 207 210 196 210H180V225H171V171ZM180 203H194C201 203 205 199 205 192C205 185 201 179 193 179H180V203Z" fill="#1E3A8A"/>

  <text x="282" y="180" fill="#DBEAFE" font-family="Arial, Helvetica, sans-serif" font-size="28" font-weight="700" letter-spacing="0.14em">PLAYSTATION PFS TOOLING</text>
  <text x="282" y="270" fill="white" font-family="Arial, Helvetica, sans-serif" font-size="72" font-weight="800">Create, verify, and browse</text>
  <text x="282" y="350" fill="white" font-family="Arial, Helvetica, sans-serif" font-size="72" font-weight="800">`.ffpfs` images with confidence</text>

  <text x="282" y="426" fill="#BFDBFE" font-family="Arial, Helvetica, sans-serif" font-size="30" font-weight="500">
  </text>


  <rect x="282" y="520" width="188" height="54" rx="27" fill="#2563EB"/>
  <text x="339" y="555" fill="white" font-family="Arial, Helvetica, sans-serif" font-size="24" font-weight="700">CLI + GUI</text>

  <rect x="488" y="520" width="218" height="54" rx="27" fill="#EFF6FF" fill-opacity="0.12" stroke="#BFDBFE" stroke-opacity="0.35"/>
  <text x="540" y="555" fill="#DBEAFE" font-family="Arial, Helvetica, sans-serif" font-size="24" font-weight="700">PS4 / PS5</text>

  <rect x="930" y="140" width="460" height="420" rx="28" fill="url(#panel)" stroke="#BFDBFE" stroke-opacity="0.24"/>
  <rect x="958" y="172" width="404" height="42" rx="16" fill="#0F172A" fill-opacity="0.32"/>
  <circle cx="988" cy="193" r="7" fill="#60A5FA"/>
  <circle cx="1012" cy="193" r="7" fill="#93C5FD"/>
  <circle cx="1036" cy="193" r="7" fill="#DBEAFE"/>

  <rect x="958" y="238" width="170" height="286" rx="22" fill="#0B1733" fill-opacity="0.62" stroke="#60A5FA" stroke-opacity="0.24"/>
  <rect x="980" y="266" width="126" height="18" rx="9" fill="#60A5FA" fill-opacity="0.42"/>
  <rect x="980" y="302" width="86" height="14" rx="7" fill="#E2E8F0" fill-opacity="0.85"/>
  <rect x="980" y="332" width="104" height="14" rx="7" fill="#E2E8F0" fill-opacity="0.72"/>
  <rect x="980" y="362" width="118" height="14" rx="7" fill="#E2E8F0" fill-opacity="0.72"/>
  <rect x="980" y="392" width="98" height="14" rx="7" fill="#E2E8F0" fill-opacity="0.72"/>
  <rect x="980" y="438" width="126" height="52" rx="16" fill="#2563EB"/>
  <text x="1015" y="471" fill="white" font-family="Arial, Helvetica, sans-serif" font-size="22" font-weight="700">Create</text>

  <rect x="1152" y="238" width="210" height="130" rx="22" fill="#F8FAFC" fill-opacity="0.92"/>
  <text x="1178" y="278" fill="#0F172A" font-family="Arial, Helvetica, sans-serif" font-size="22" font-weight="700">Validation</text>
  <rect x="1178" y="296" width="134" height="12" rx="6" fill="#BFDBFE"/>
  <rect x="1178" y="322" width="154" height="12" rx="6" fill="#BFDBFE"/>
  <rect x="1178" y="340" width="122" height="12" rx="6" fill="#BFDBFE"/>
  <circle cx="1324" cy="316" r="22" fill="#2563EB"/>
  <path d="M1315 316L1321 322L1334 309" stroke="white" stroke-width="5" stroke-linecap="round" stroke-linejoin="round"/>

  <rect x="1152" y="388" width="210" height="136" rx="22" fill="#0F172A" fill-opacity="0.78" stroke="#60A5FA" stroke-opacity="0.25"/>
  <text x="1178" y="428" fill="white" font-family="Arial, Helvetica, sans-serif" font-size="22" font-weight="700">Tree View</text>
  <path d="M1190 452H1332" stroke="#60A5FA" stroke-width="4" stroke-linecap="round"/>
  <path d="M1190 478H1298" stroke="#BFDBFE" stroke-width="4" stroke-linecap="round"/>
  <path d="M1190 504H1274" stroke="#BFDBFE" stroke-width="4" stroke-linecap="round"/>
</svg>
