<svg width="1280" height="860" viewBox="0 0 1280 860" fill="none" xmlns="http://www.w3.org/2000/svg">
  <defs>
    <linearGradient id="bg" x1="0" y1="0" x2="1280" y2="860" gradientUnits="userSpaceOnUse">
      <stop stop-color="#0B1733"/>
      <stop offset="0.55" stop-color="#1E3A8A"/>
      <stop offset="1" stop-color="#60A5FA"/>
    </linearGradient>
  </defs>

  <rect width="1280" height="860" rx="32" fill="url(#bg)"/>
  <rect x="64" y="58" width="1152" height="744" rx="28" fill="#0F172A" fill-opacity="0.24" stroke="white" stroke-opacity="0.15"/>

  <rect x="112" y="108" width="1056" height="86" rx="22" fill="#EFF6FF"/>
  <text x="154" y="162" fill="#0F172A" font-family="Arial, Helvetica, sans-serif" font-size="34" font-weight="800">Integrity Verification</text>

  <rect x="112" y="228" width="520" height="512" rx="26" fill="#020617" fill-opacity="0.86" stroke="#3B82F6" stroke-opacity="0.45"/>
  <text x="150" y="286" fill="#60A5FA" font-family="Courier New, monospace" font-size="26" font-weight="700">$ mkpfs verify --image ./game.ffpfs</text>
  <text x="150" y="344" fill="#E2E8F0" font-family="Courier New, monospace" font-size="23">PFS Check Report</text>
  <text x="150" y="388" fill="#BFDBFE" font-family="Courier New, monospace" font-size="21">Version:            PS5</text>
  <text x="150" y="420" fill="#BFDBFE" font-family="Courier New, monospace" font-size="21">Files hash-checked: 1,248</text>
  <text x="150" y="452" fill="#BFDBFE" font-family="Courier New, monospace" font-size="21">Warnings:           0</text>
  <text x="150" y="484" fill="#BFDBFE" font-family="Courier New, monospace" font-size="21">Errors:             0</text>

  <rect x="150" y="536" width="300" height="68" rx="20" fill="#22C55E"/>
  <path d="M218 570L244 596L306 534" stroke="white" stroke-width="12" stroke-linecap="round" stroke-linejoin="round"/>
  <text x="334" y="580" fill="white" font-family="Arial, Helvetica, sans-serif" font-size="26" font-weight="800">PASS</text>

  <rect x="678" y="228" width="490" height="246" rx="26" fill="#F8FAFC" fill-opacity="0.94"/>
  <text x="718" y="286" fill="#0F172A" font-family="Arial, Helvetica, sans-serif" font-size="30" font-weight="800">Validation Highlights</text>
  <rect x="718" y="320" width="380" height="16" rx="8" fill="#BFDBFE"/>
  <rect x="718" y="356" width="334" height="16" rx="8" fill="#BFDBFE"/>
  <rect x="718" y="392" width="292" height="16" rx="8" fill="#BFDBFE"/>
  <rect x="718" y="428" width="410" height="16" rx="8" fill="#BFDBFE"/>

  <rect x="678" y="498" width="490" height="242" rx="26" fill="#0B1733" fill-opacity="0.88" stroke="#93C5FD" stroke-opacity="0.35"/>
  <text x="718" y="552" fill="white" font-family="Arial, Helvetica, sans-serif" font-size="30" font-weight="800">Checks Performed</text>
  <text x="718" y="598" fill="#DBEAFE" font-family="Arial, Helvetica, sans-serif" font-size="24">• structure and inode layout</text>
  <text x="718" y="634" fill="#DBEAFE" font-family="Arial, Helvetica, sans-serif" font-size="24">• payload hash verification</text>
  <text x="718" y="670" fill="#DBEAFE" font-family="Arial, Helvetica, sans-serif" font-size="24">• tree reachability and indexes</text>
  <text x="718" y="706" fill="#DBEAFE" font-family="Arial, Helvetica, sans-serif" font-size="24">• optional source-folder comparison</text>

  <text x="112" y="792" fill="#DBEAFE" font-family="Arial, Helvetica, sans-serif" font-size="24" font-weight="700">Placeholder screenshot: Verification workflow</text>
</svg>
