<svg width="1280" height="860" viewBox="0 0 1280 860" fill="none" xmlns="http://www.w3.org/2000/svg">
  <defs>
    <linearGradient id="bg" x1="0" y1="0" x2="1280" y2="860" gradientUnits="userSpaceOnUse">
      <stop stop-color="#0F172A"/>
      <stop offset="1" stop-color="#1D4ED8"/>
    </linearGradient>
    <linearGradient id="panel" x1="140" y1="120" x2="1130" y2="730" gradientUnits="userSpaceOnUse">
      <stop stop-color="#F8FAFC"/>
      <stop offset="1" stop-color="#DBEAFE"/>
    </linearGradient>
  </defs>

  <rect width="1280" height="860" rx="32" fill="url(#bg)"/>
  <rect x="60" y="56" width="1160" height="748" rx="28" fill="#F8FAFC" fill-opacity="0.08" stroke="#BFDBFE" stroke-opacity="0.18"/>

  <rect x="112" y="108" width="1056" height="72" rx="22" fill="#0B1733" fill-opacity="0.82"/>
  <circle cx="154" cy="144" r="10" fill="#60A5FA"/>
  <circle cx="186" cy="144" r="10" fill="#93C5FD"/>
  <circle cx="218" cy="144" r="10" fill="#DBEAFE"/>
  <text x="268" y="154" fill="#DBEAFE" font-family="Arial, Helvetica, sans-serif" font-size="28" font-weight="700">MkPFS CLI Placeholder</text>

  <rect x="112" y="214" width="1056" height="530" rx="26" fill="#020617" fill-opacity="0.86" stroke="#2563EB" stroke-opacity="0.4"/>

  <text x="156" y="276" fill="#60A5FA" font-family="Courier New, monospace" font-size="28" font-weight="700">$ mkpfs create --path ./input --output ./game.ffpfs --verify</text>
  <text x="156" y="334" fill="#E2E8F0" font-family="Courier New, monospace" font-size="24">PFS Image Builder - Parameters</text>
  <text x="156" y="376" fill="#BFDBFE" font-family="Courier New, monospace" font-size="22">Source path:       ./input</text>
  <text x="156" y="410" fill="#BFDBFE" font-family="Courier New, monospace" font-size="22">Output path:       ./game.ffpfs</text>
  <text x="156" y="444" fill="#BFDBFE" font-family="Courier New, monospace" font-size="22">Version:           PS5 profile</text>
  <text x="156" y="478" fill="#BFDBFE" font-family="Courier New, monospace" font-size="22">Compression:       enabled</text>
  <text x="156" y="512" fill="#BFDBFE" font-family="Courier New, monospace" font-size="22">Block size:        auto (64 KiB)</text>

  <rect x="156" y="558" width="708" height="28" rx="14" fill="#0F172A"/>
  <rect x="156" y="558" width="522" height="28" rx="14" fill="#2563EB"/>
  <text x="892" y="579" fill="#DBEAFE" font-family="Arial, Helvetica, sans-serif" font-size="22" font-weight="700">74% complete</text>

  <rect x="900" y="332" width="200" height="200" rx="30" fill="url(#panel)"/>
  <circle cx="1000" cy="432" r="56" fill="#1E3A8A"/>
  <circle cx="1000" cy="432" r="36" fill="#3B82F6"/>
  <rect x="945" y="480" width="112" height="18" rx="9" transform="rotate(-38 945 480)" fill="#60A5FA"/>

  <text x="156" y="652" fill="#E2E8F0" font-family="Courier New, monospace" font-size="24">Build Summary</text>
  <text x="156" y="692" fill="#BFDBFE" font-family="Courier New, monospace" font-size="22">Total files:       1,248</text>
  <text x="156" y="724" fill="#BFDBFE" font-family="Courier New, monospace" font-size="22">Compression gain:  33.40%</text>

  <rect x="790" y="640" width="310" height="52" rx="18" fill="#2563EB"/>
  <text x="860" y="674" fill="white" font-family="Arial, Helvetica, sans-serif" font-size="24" font-weight="700">Create</text>

  <text x="112" y="792" fill="#DBEAFE" font-family="Arial, Helvetica, sans-serif" font-size="24" font-weight="700">Placeholder screenshot: Create workflow</text>
</svg>
