<svg width="1280" height="860" viewBox="0 0 1280 860" fill="none" xmlns="http://www.w3.org/2000/svg">
  <defs>
    <linearGradient id="bg" x1="0" y1="0" x2="1280" y2="860" gradientUnits="userSpaceOnUse">
      <stop stop-color="#0F172A"/>
      <stop offset="0.5" stop-color="#172554"/>
      <stop offset="1" stop-color="#2563EB"/>
    </linearGradient>
    <linearGradient id="window" x1="122" y1="116" x2="1158" y2="742" gradientUnits="userSpaceOnUse">
      <stop stop-color="#EFF6FF"/>
      <stop offset="1" stop-color="#DBEAFE"/>
    </linearGradient>
  </defs>

  <rect width="1280" height="860" rx="32" fill="url(#bg)"/>
  <rect x="74" y="60" width="1132" height="740" rx="30" fill="#0F172A" fill-opacity="0.2" stroke="white" stroke-opacity="0.14"/>

  <rect x="122" y="108" width="1036" height="632" rx="30" fill="url(#window)"/>
  <rect x="122" y="108" width="1036" height="82" rx="30" fill="#0B1733"/>
  <circle cx="168" cy="149" r="10" fill="#60A5FA"/>
  <circle cx="200" cy="149" r="10" fill="#93C5FD"/>
  <circle cx="232" cy="149" r="10" fill="#DBEAFE"/>
  <text x="280" y="160" fill="white" font-family="Arial, Helvetica, sans-serif" font-size="32" font-weight="800">MkPFS Desktop</text>

  <rect x="158" y="224" width="226" height="474" rx="24" fill="#0B1733"/>
  <text x="192" y="270" fill="#93C5FD" font-family="Arial, Helvetica, sans-serif" font-size="24" font-weight="700">Operations</text>
  <rect x="188" y="302" width="166" height="54" rx="16" fill="#2563EB"/>
  <text x="235" y="337" fill="white" font-family="Arial, Helvetica, sans-serif" font-size="24" font-weight="700">Create</text>
  <rect x="188" y="376" width="166" height="54" rx="16" fill="#1E293B"/>
  <text x="235" y="411" fill="#DBEAFE" font-family="Arial, Helvetica, sans-serif" font-size="24" font-weight="700">Verify</text>
  <rect x="188" y="450" width="166" height="54" rx="16" fill="#1E293B"/>
  <text x="253" y="485" fill="#DBEAFE" font-family="Arial, Helvetica, sans-serif" font-size="24" font-weight="700">List</text>
  <rect x="188" y="524" width="166" height="54" rx="16" fill="#1E293B"/>
  <text x="234" y="559" fill="#DBEAFE" font-family="Arial, Helvetica, sans-serif" font-size="24" font-weight="700">Profile</text>

  <rect x="420" y="224" width="696" height="224" rx="24" fill="white"/>
  <text x="458" y="274" fill="#0F172A" font-family="Arial, Helvetica, sans-serif" font-size="34" font-weight="800">Cross-platform GUI placeholder</text>
  <rect x="458" y="304" width="276" height="16" rx="8" fill="#BFDBFE"/>
  <rect x="458" y="338" width="340" height="16" rx="8" fill="#BFDBFE"/>
  <rect x="458" y="372" width="248" height="16" rx="8" fill="#BFDBFE"/>

  <rect x="458" y="404" width="180" height="26" rx="13" fill="#DBEAFE"/>
  <text x="494" y="423" fill="#1E3A8A" font-family="Arial, Helvetica, sans-serif" font-size="18" font-weight="800">Windows</text>
  <rect x="654" y="404" width="160" height="26" rx="13" fill="#DBEAFE"/>
  <text x="702" y="423" fill="#1E3A8A" font-family="Arial, Helvetica, sans-serif" font-size="18" font-weight="800">macOS</text>
  <rect x="830" y="404" width="148" height="26" rx="13" fill="#DBEAFE"/>
  <text x="876" y="423" fill="#1E3A8A" font-family="Arial, Helvetica, sans-serif" font-size="18" font-weight="800">Linux</text>

  <rect x="420" y="472" width="336" height="226" rx="24" fill="#0B1733"/>
  <text x="454" y="520" fill="white" font-family="Arial, Helvetica, sans-serif" font-size="28" font-weight="800">Image Browser</text>
  <path d="M454 548H720" stroke="#60A5FA" stroke-width="8" stroke-linecap="round"/>
  <path d="M478 582H660" stroke="#BFDBFE" stroke-width="8" stroke-linecap="round"/>
  <path d="M502 616H636" stroke="#BFDBFE" stroke-width="8" stroke-linecap="round"/>
  <path d="M526 650H612" stroke="#BFDBFE" stroke-width="8" stroke-linecap="round"/>

  <rect x="780" y="472" width="336" height="226" rx="24" fill="#2563EB"/>
  <text x="814" y="520" fill="white" font-family="Arial, Helvetica, sans-serif" font-size="28" font-weight="800">Task Status</text>
  <rect x="814" y="552" width="268" height="24" rx="12" fill="#DBEAFE" fill-opacity="0.28"/>
  <rect x="814" y="552" width="210" height="24" rx="12" fill="white"/>
  <text x="814" y="612" fill="white" font-family="Arial, Helvetica, sans-serif" font-size="24">Create</text>
  <text x="814" y="646" fill="white" font-family="Arial, Helvetica, sans-serif" font-size="24">Verify</text>
  <text x="814" y="680" fill="white" font-family="Arial, Helvetica, sans-serif" font-size="24">List</text>

  <text x="122" y="792" fill="#DBEAFE" font-family="Arial, Helvetica, sans-serif" font-size="24" font-weight="700">Placeholder screenshot: GUI overview</text>
</svg>
